<svg width="80" height="80" viewBox="0 0 80 80" fill="none" xmlns="http://www.w3.org/2000/svg">
<path d="M68.5173 20.2098V19.0926H70.4425V10.5765H63.0491V19.0926H64.1655V20.2098H63.0491H61.9326H57.2619V19.0926H61.9326V10.5765H60.2808H54.243H51.7709V19.0926H53.4228V20.2098H51.7709V28.7032H50.6545V27.8823H36.403V26.7651H50.6545V10.5765H41.894H33.6575H30.388V26.7537H33.1334V27.8709H30.388H29.2715H26.7994V24.827H29.2715V10.5765H22.4135H14.177H9.50626V26.7537H21.8553H22.9717H23.8147V27.8709H22.9717V28.6918H21.8553V27.8709H9.51765V38.3023H21.8667V32.5337H22.9831V38.3023V39.4196H9.51765V59.1879H14.1884H22.4249H30.3538V36.4099H27.0843V35.2926H30.3538H31.4702H50.6545V32.5451H51.7709V35.2926H52.8873V36.4099H51.7709H50.6545H31.4702V59.1879H33.6689H41.9054H53.4342H58.3783V59.7352V60.0088V61.696H53.4342H48.2166V68.5249H66.0566V61.696H62.2174V59.1879H70.4539V36.4099H58.6403V35.2926H70.4425V24.8612H72.9488V61.696H70.4425H66.6034V68.5249V69.0721H66.0566H48.2052H47.6584V68.5249V61.696H41.894H33.6575H22.4021H14.177H9.50626H7V59.1879V10.5765V8.06836H9.50626H14.177H22.4135H33.6689H41.9054H54.2544H60.2922H70.4425H72.9488V10.5765V20.757H70.4425V20.2098H68.5173Z" fill="#29313C"/>
<path d="M67.3896 53.3223H70.4082V49.0303H70.5449V53.459H67.2529V49.0303H67.3896V53.3223ZM70.4082 49.0303H67.3896V48.8936H70.4082V49.0303ZM68.1533 47.582C68.2898 47.5821 68.4041 47.64 68.4951 47.7197C68.586 47.8109 68.6318 47.9249 68.6318 48.0615C68.6318 48.1981 68.5747 48.3122 68.4951 48.4033C68.4041 48.4944 68.2898 48.5399 68.1533 48.54C68.0167 48.54 67.9026 48.483 67.8115 48.4033C67.7318 48.3122 67.6749 48.1982 67.6748 48.0615C67.6748 47.9247 67.7318 47.8109 67.8115 47.7197C67.9027 47.6285 68.0166 47.582 68.1533 47.582ZM69.6455 47.582C69.7821 47.5821 69.8962 47.64 69.9873 47.7197C70.0782 47.8109 70.124 47.9249 70.124 48.0615C70.124 48.1982 70.0669 48.3122 69.9873 48.4033C69.8962 48.4945 69.7821 48.54 69.6455 48.54C69.5089 48.54 69.3948 48.4831 69.3037 48.4033C69.224 48.3122 69.1671 48.1982 69.167 48.0615C69.167 47.9248 69.224 47.8109 69.3037 47.7197C69.3948 47.6285 69.5088 47.582 69.6455 47.582ZM68.1533 47.7197C68.0622 47.7197 67.971 47.7539 67.9141 47.8223C67.8571 47.8793 67.8115 47.9703 67.8115 48.0615C67.8116 48.1527 67.8458 48.2438 67.9141 48.3008C67.971 48.3577 68.0623 48.4033 68.1533 48.4033C68.2443 48.4032 68.3357 48.3691 68.3926 48.3008C68.4494 48.2438 68.495 48.1526 68.4951 48.0615C68.4951 47.9705 68.4606 47.8793 68.3926 47.8223C68.3357 47.7653 68.2443 47.7199 68.1533 47.7197ZM69.6455 47.7197C69.5544 47.7197 69.4632 47.7539 69.4062 47.8223C69.3493 47.8793 69.3037 47.9704 69.3037 48.0615C69.3038 48.1527 69.338 48.2438 69.4062 48.3008C69.4632 48.3577 69.5544 48.4033 69.6455 48.4033C69.7366 48.4033 69.8279 48.3691 69.8848 48.3008C69.9416 48.2438 69.9872 48.1526 69.9873 48.0615C69.9873 47.9705 69.9529 47.8793 69.8848 47.8223C69.8279 47.7653 69.7366 47.7198 69.6455 47.7197ZM68.1533 46.2148C68.2898 46.215 68.4041 46.2718 68.4951 46.3516C68.586 46.4427 68.6318 46.5567 68.6318 46.6934C68.6318 46.83 68.5747 46.944 68.4951 47.0352C68.4041 47.1263 68.2898 47.1718 68.1533 47.1719C68.0167 47.1719 67.9026 47.1149 67.8115 47.0352C67.7318 46.944 67.6748 46.8301 67.6748 46.6934C67.6748 46.5566 67.7318 46.4428 67.8115 46.3516C67.9027 46.2604 68.0166 46.2148 68.1533 46.2148ZM69.6455 46.2148C69.7821 46.2149 69.8962 46.2718 69.9873 46.3516C70.0782 46.4427 70.124 46.5567 70.124 46.6934C70.124 46.83 70.0669 46.944 69.9873 47.0352C69.8962 47.1263 69.7821 47.1718 69.6455 47.1719C69.5088 47.1719 69.3948 47.1149 69.3037 47.0352C69.224 46.944 69.167 46.8301 69.167 46.6934C69.167 46.5566 69.224 46.4428 69.3037 46.3516C69.3948 46.2604 69.5088 46.2148 69.6455 46.2148ZM68.1533 46.3516C68.0622 46.3516 67.971 46.3857 67.9141 46.4541C67.8571 46.5111 67.8115 46.6022 67.8115 46.6934C67.8116 46.7845 67.8457 46.8756 67.9141 46.9326C67.971 46.9895 68.0623 47.0352 68.1533 47.0352C68.2443 47.0351 68.3357 47.0009 68.3926 46.9326C68.4494 46.8756 68.4951 46.7844 68.4951 46.6934C68.4951 46.6023 68.4607 46.5111 68.3926 46.4541C68.3357 46.3972 68.2443 46.3517 68.1533 46.3516ZM69.6455 46.3516C69.5544 46.3516 69.4632 46.3857 69.4062 46.4541C69.3493 46.5111 69.3037 46.6022 69.3037 46.6934C69.3037 46.7845 69.3379 46.8756 69.4062 46.9326C69.4632 46.9896 69.5544 47.0352 69.6455 47.0352C69.7366 47.0351 69.8279 47.001 69.8848 46.9326C69.9416 46.8756 69.9873 46.7844 69.9873 46.6934C69.9873 46.6023 69.9529 46.5111 69.8848 46.4541C69.8279 46.3971 69.7366 46.3516 69.6455 46.3516ZM70.4082 45.8721H67.3896V45.7354H70.4082V45.8721ZM70.5449 45.7354H70.4082V36.5352H67.3896V45.7354H67.2529V36.3984H70.5449V45.7354Z" fill="#29313C"/>
<path d="M58.3584 13.1074C58.3584 12.834 58.4722 12.572 58.6543 12.3896C58.8365 12.2073 59.0874 12.0928 59.3721 12.0928H61.9355V14.1221H59.3721C59.0987 14.122 58.8365 14.0076 58.6543 13.8252C58.4722 13.6428 58.3584 13.3922 58.3584 13.1074ZM61.833 14.0078V12.207H60.9219V14.0078H61.833ZM58.4834 13.1074C58.4834 13.3582 58.5866 13.5865 58.7461 13.7461C58.9056 13.9055 59.1333 14.0078 59.3838 14.0078H60.8076V12.207H59.3838C59.1333 12.207 58.9056 12.3093 58.7461 12.4688C58.5866 12.6284 58.4834 12.8566 58.4834 13.1074Z" fill="#29313C"/>
<path d="M59.3037 16.5557C59.3037 16.0997 59.4971 15.689 59.8047 15.3926C60.1122 15.0848 60.534 14.9024 61.001 14.9023H61.9355V18.1973H61.001C60.534 18.1972 60.1122 18.0151 59.8047 17.7188C59.4971 17.4224 59.3037 17.0117 59.3037 16.5557ZM59.4404 16.5332C59.4405 16.9663 59.6118 17.3427 59.8965 17.6162C60.1812 17.8896 60.5683 18.0605 61.001 18.0605H61.8096V15.0166H61.001C60.5683 15.0166 60.1812 15.1875 59.8965 15.4609C59.6117 15.7345 59.4404 16.1114 59.4404 16.5332ZM59.668 16.5098C59.668 16.1678 59.8162 15.8598 60.0439 15.6318C60.2717 15.404 60.5908 15.2677 60.9551 15.2676H61.2178V17.8438H60.9551C60.6022 17.8436 60.2831 17.7073 60.0439 17.4795C59.8162 17.2516 59.6681 16.9434 59.668 16.6016V16.5098ZM59.8047 16.6016C59.8048 16.9091 59.9302 17.194 60.1465 17.3877C60.3514 17.5928 60.6477 17.7186 60.9551 17.7188H61.0811V15.3926H60.9551C60.6363 15.3927 60.3514 15.5185 60.1465 15.7236C59.9416 15.9288 59.8048 16.2022 59.8047 16.5098V16.6016ZM60.4805 16.5684C60.4806 16.466 60.57 16.382 60.6787 16.3818C60.7876 16.3818 60.8671 16.4548 60.8672 16.5684C60.8672 16.682 60.787 16.7627 60.6787 16.7627C60.5706 16.7625 60.4805 16.6708 60.4805 16.5684ZM60.5713 16.5684C60.5713 16.6334 60.6175 16.6737 60.6787 16.6738C60.7401 16.6738 60.7871 16.6356 60.7871 16.5684C60.787 16.5013 60.7275 16.4648 60.6787 16.4648C60.63 16.4651 60.5714 16.5035 60.5713 16.5684Z" fill="#29313C"/>
<path d="M15.749 34.7344C16.0224 34.7344 16.2845 34.8488 16.4668 35.0312C16.649 35.2136 16.7627 35.4641 16.7627 35.749V38.3145H14.7354V35.749C14.7354 35.4756 14.8492 35.2136 15.0312 35.0312C15.2135 34.8489 15.4643 34.7344 15.749 34.7344ZM14.8496 38.2119H16.6494V37.2998H14.8496V38.2119ZM15.749 34.8594C15.4985 34.8594 15.2708 34.9625 15.1113 35.1221C14.9519 35.2817 14.8496 35.5099 14.8496 35.7607V37.1855H16.6494V35.7607C16.6494 35.5099 16.5462 35.2817 16.3867 35.1221C16.2272 34.9626 15.9995 34.8594 15.749 34.8594Z" fill="#29313C"/>
<path d="M19.3486 35.6807C19.8043 35.6807 20.2146 35.8748 20.5107 36.1826C20.8181 36.4903 20.9999 36.9118 21 37.3789V38.3145H17.708V37.3789C17.7081 36.9117 17.8905 36.4903 18.1865 36.1826C18.4827 35.8748 18.8929 35.6807 19.3486 35.6807ZM19.3711 35.8174C18.9383 35.8174 18.5624 35.9885 18.2891 36.2734C18.0157 36.5584 17.8448 36.9459 17.8447 37.3789V38.1885H20.8867V37.3789C20.8866 36.9459 20.7156 36.5583 20.4424 36.2734C20.169 35.9884 19.7926 35.8174 19.3711 35.8174ZM19.3936 36.0459C19.7353 36.0459 20.0436 36.1939 20.2715 36.4219C20.4992 36.6499 20.6357 36.9693 20.6357 37.334V37.5957H18.0615V37.334C18.0615 36.9806 18.198 36.6613 18.4258 36.4219C18.6536 36.1939 18.961 36.0459 19.3027 36.0459H19.3936ZM19.3027 36.1826C18.9952 36.1827 18.7102 36.3078 18.5166 36.5244C18.3117 36.7296 18.1865 37.0263 18.1865 37.334V37.459H20.5107V37.334C20.5107 37.0148 20.3847 36.7296 20.1797 36.5244C19.9746 36.3193 19.7011 36.1826 19.3936 36.1826H19.3027ZM19.3359 36.8584C19.4381 36.8587 19.5222 36.948 19.5225 37.0566C19.5225 37.1655 19.4492 37.2459 19.3359 37.2461C19.2224 37.2461 19.1416 37.165 19.1416 37.0566C19.1418 36.9485 19.2336 36.8584 19.3359 36.8584ZM19.3359 36.9492C19.271 36.9492 19.2307 36.9954 19.2305 37.0566C19.2305 37.1181 19.2688 37.165 19.3359 37.165C19.4028 37.1648 19.4395 37.1054 19.4395 37.0566C19.4392 37.008 19.4006 36.9495 19.3359 36.9492Z" fill="#29313C"/>
<path d="M12.8096 34.9736H9.51758V27.8828H12.8096V34.9736ZM9.6084 34.8828H12.707V27.9736H9.6084V34.8828ZM11.1465 28.293C11.511 28.293 11.8415 28.4074 12.0693 28.624C12.2858 28.8292 12.4229 29.1144 12.4229 29.4678V33.4121C12.4228 33.7655 12.2858 34.0507 12.0693 34.2559C11.8301 34.4724 11.511 34.5859 11.1465 34.5859C10.782 34.5859 10.4514 34.4724 10.2236 34.2559C10.0072 34.0507 9.87111 33.7655 9.87109 33.4121V29.4678C9.87109 29.1145 10.0073 28.8292 10.2236 28.624C10.4628 28.4074 10.782 28.293 11.1465 28.293ZM11.1465 28.3848C10.8049 28.3848 10.4977 28.4873 10.2812 28.6924C10.0762 28.8748 9.9502 29.1372 9.9502 29.4678V33.4121C9.95022 33.7427 10.0762 33.9937 10.2812 34.1875C10.4976 34.3811 10.805 34.4951 11.1465 34.4951C11.4882 34.4837 11.7962 34.3813 12.0127 34.1875C12.2177 34.0051 12.3428 33.7427 12.3428 33.4121V29.4678C12.3428 29.1373 12.2176 28.8862 12.0127 28.6924C11.7962 28.4986 11.4882 28.3848 11.1465 28.3848ZM11.1396 33.4736C11.2421 33.4736 11.3271 33.5638 11.3271 33.6729C11.327 33.7816 11.253 33.8613 11.1396 33.8613C11.0265 33.8611 10.9465 33.7808 10.9463 33.6729C10.9463 33.5647 11.0374 33.4739 11.1396 33.4736ZM11.1396 33.5645C11.0748 33.5647 11.0352 33.6116 11.0352 33.6729C11.0353 33.7339 11.073 33.7801 11.1396 33.7803C11.2066 33.7803 11.2439 33.7216 11.2441 33.6729C11.2441 33.624 11.2048 33.5645 11.1396 33.5645Z" fill="#29313C"/>
<path d="M53.4795 59.2441H58.3097V61.6382H53.4795V59.2441Z" fill="white"/>
<path d="M58.3555 59.1875V61.6953H53.4111V59.1875H58.3555ZM53.5254 59.3018V61.582H58.2412V59.3018H53.5254Z" fill="#171924"/>
<rect x="53.4229" y="59.9395" width="4.94416" height="0.136803" fill="#171924"/>
<path d="M33.7256 59.2441H41.8481V61.6382H33.7256V59.2441Z" fill="white"/>
<path d="M41.8936 59.1875V61.6953H33.6572V59.1875H41.8936ZM33.7715 59.3018V61.582H41.7803V59.3018H33.7715Z" fill="#171924"/>
<rect x="33.6689" y="59.9395" width="8.23647" height="0.136803" fill="#171924"/>
<path d="M14.2334 59.2441H22.356V61.6382H14.2334V59.2441Z" fill="white"/>
<path d="M22.4131 59.1875V61.6953H14.1768V59.1875H22.4131ZM14.291 59.3018V61.582H22.2998V59.3018H14.291Z" fill="#171924"/>
<rect x="14.1768" y="59.9395" width="8.23648" height="0.136803" fill="#171924"/>
<path d="M14.2334 8.125H22.356V10.5191H14.2334V8.125Z" fill="white"/>
<path d="M22.4131 8.06836V10.5762H14.1768V8.06836H22.4131ZM14.291 8.18262V10.4629H22.2998V8.18262H14.291Z" fill="#171924"/>
<rect x="14.1768" y="9.6875" width="8.23648" height="0.136805" fill="#171924"/>
<path d="M33.7256 8.125H41.8481V10.5191H33.7256V8.125Z" fill="white"/>
<path d="M41.8936 8.06836V10.5762H33.6572V8.06836H41.8936ZM33.7715 8.18262V10.4629H41.7803V8.18262H33.7715Z" fill="#171924"/>
<rect x="33.6689" y="9.6875" width="8.23647" height="0.136805" fill="#171924"/>
<path d="M54.2998 8.125H60.2237V10.5191H54.2998L54.2998 8.125Z" fill="white"/>
<path d="M60.2812 8.06836V10.5762H54.2432V8.06836H60.2812ZM54.3574 8.18262V10.4629H60.167V8.18262H54.3574Z" fill="#171924"/>
<rect x="54.2432" y="9.6875" width="6.03781" height="0.136805" fill="#171924"/>
<path opacity="0.2" d="M15.2713 66.4157C16.2242 67.867 15.6714 69.7461 14.0454 70.5859C12.4239 71.4379 10.3237 70.9426 9.38334 69.4856C8.42655 68.0281 8.98394 66.161 10.6129 65.319C12.2343 64.4677 14.3324 64.9609 15.2713 66.4157Z" fill="#0B1739" fill-opacity="0.2"/>
<path d="M14.5107 66.7286L12.6979 68.6145L9.94397 69.0599L11.7636 67.1847L14.5107 66.7286ZM10.657 68.7146L12.5033 68.2949L11.9737 67.5084L10.657 68.7146Z" fill="#FF0000"/>
<path d="M14.5107 66.7286L12.6979 68.6145L9.94397 69.0599L11.7636 67.1847L14.5107 66.7286ZM10.657 68.7146L12.5033 68.2949L11.9737 67.5084L10.657 68.7146Z" fill="#0B1739"/>
<path fill-rule="evenodd" clip-rule="evenodd" d="M7.72169 71.041C7.58533 71.041 7.46215 71.0146 7.35216 70.9618C7.24217 70.909 7.15598 70.836 7.09359 70.7429C7.0312 70.6498 7 70.5447 7 70.4277C7 70.3108 7.03152 70.2057 7.09455 70.1126C7.15759 70.0194 7.2441 69.9465 7.35409 69.8937C7.46408 69.8409 7.58726 69.8145 7.72362 69.8145C7.83426 69.8145 7.93524 69.8315 8.02658 69.8656C8.11792 69.8996 8.1951 69.949 8.25814 70.0138L8.09605 70.1483C7.99828 70.0552 7.878 70.0087 7.7352 70.0087C7.64258 70.0087 7.5596 70.0265 7.48628 70.0623C7.41295 70.0981 7.3557 70.1478 7.31454 70.2114C7.27337 70.275 7.25279 70.3471 7.25279 70.4277C7.25279 70.5084 7.27337 70.5805 7.31454 70.6441C7.3557 70.7077 7.41295 70.7574 7.48628 70.7931C7.5596 70.8289 7.64258 70.8468 7.7352 70.8468C7.878 70.8468 7.99828 70.7997 8.09605 70.7054L8.25814 70.8417C8.1951 70.9064 8.1176 70.9558 8.02562 70.9899C7.93363 71.024 7.83233 71.041 7.72169 71.041Z" fill="#FF0000"/>
<path fill-rule="evenodd" clip-rule="evenodd" d="M7.72169 71.041C7.58533 71.041 7.46215 71.0146 7.35216 70.9618C7.24217 70.909 7.15598 70.836 7.09359 70.7429C7.0312 70.6498 7 70.5447 7 70.4277C7 70.3108 7.03152 70.2057 7.09455 70.1126C7.15759 70.0194 7.2441 69.9465 7.35409 69.8937C7.46408 69.8409 7.58726 69.8145 7.72362 69.8145C7.83426 69.8145 7.93524 69.8315 8.02658 69.8656C8.11792 69.8996 8.1951 69.949 8.25814 70.0138L8.09605 70.1483C7.99828 70.0552 7.878 70.0087 7.7352 70.0087C7.64258 70.0087 7.5596 70.0265 7.48628 70.0623C7.41295 70.0981 7.3557 70.1478 7.31454 70.2114C7.27337 70.275 7.25279 70.3471 7.25279 70.4277C7.25279 70.5084 7.27337 70.5805 7.31454 70.6441C7.3557 70.7077 7.41295 70.7574 7.48628 70.7931C7.5596 70.8289 7.64258 70.8468 7.7352 70.8468C7.878 70.8468 7.99828 70.7997 8.09605 70.7054L8.25814 70.8417C8.1951 70.9064 8.1176 70.9558 8.02562 70.9899C7.93363 71.024 7.83233 71.041 7.72169 71.041Z" fill="#0B1739"/>
<path fill-rule="evenodd" clip-rule="evenodd" d="M17.4303 64.9033C17.5628 64.9033 17.6821 64.9297 17.7883 64.9825C17.8944 65.0353 17.9777 65.1083 18.0381 65.2014C18.0986 65.2946 18.1288 65.3996 18.1288 65.5166C18.1288 65.6336 18.0986 65.7386 18.0381 65.8318C17.9777 65.9249 17.8944 65.9979 17.7883 66.0507C17.6821 66.1035 17.5628 66.1299 17.4303 66.1299C17.3094 66.1299 17.1991 66.1077 17.0994 66.0634C16.9997 66.0191 16.918 65.9573 16.8543 65.8778C16.7906 65.7983 16.7511 65.708 16.7356 65.6069H16.5234V66.1128H16.2764V64.9204H16.5234V65.4093H16.7395C16.7575 65.3105 16.7983 65.2227 16.862 65.1461C16.9257 65.0694 17.0067 65.0098 17.1052 64.9672C17.2036 64.9246 17.312 64.9033 17.4303 64.9033ZM17.4304 65.9357C17.514 65.9357 17.5899 65.9181 17.6581 65.8829C17.7262 65.8477 17.7796 65.7983 17.8182 65.7347C17.8568 65.6711 17.8761 65.5984 17.8761 65.5166C17.8761 65.4348 17.8568 65.3621 17.8182 65.2985C17.7796 65.2349 17.7262 65.1855 17.6581 65.1503C17.5899 65.1151 17.514 65.0975 17.4304 65.0975C17.3467 65.0975 17.2712 65.1151 17.2036 65.1503C17.1361 65.1855 17.0827 65.2349 17.0435 65.2985C17.0042 65.3621 16.9846 65.4348 16.9846 65.5166C16.9846 65.5984 17.0042 65.6711 17.0435 65.7347C17.0827 65.7983 17.1361 65.8477 17.2036 65.8829C17.2712 65.9181 17.3467 65.9357 17.4304 65.9357Z" fill="#FF0000"/>
<path fill-rule="evenodd" clip-rule="evenodd" d="M17.4303 64.9033C17.5628 64.9033 17.6821 64.9297 17.7883 64.9825C17.8944 65.0353 17.9777 65.1083 18.0381 65.2014C18.0986 65.2946 18.1288 65.3996 18.1288 65.5166C18.1288 65.6336 18.0986 65.7386 18.0381 65.8318C17.9777 65.9249 17.8944 65.9979 17.7883 66.0507C17.6821 66.1035 17.5628 66.1299 17.4303 66.1299C17.3094 66.1299 17.1991 66.1077 17.0994 66.0634C16.9997 66.0191 16.918 65.9573 16.8543 65.8778C16.7906 65.7983 16.7511 65.708 16.7356 65.6069H16.5234V66.1128H16.2764V64.9204H16.5234V65.4093H16.7395C16.7575 65.3105 16.7983 65.2227 16.862 65.1461C16.9257 65.0694 17.0067 65.0098 17.1052 64.9672C17.2036 64.9246 17.312 64.9033 17.4303 64.9033ZM17.4304 65.9357C17.514 65.9357 17.5899 65.9181 17.6581 65.8829C17.7262 65.8477 17.7796 65.7983 17.8182 65.7347C17.8568 65.6711 17.8761 65.5984 17.8761 65.5166C17.8761 65.4348 17.8568 65.3621 17.8182 65.2985C17.7796 65.2349 17.7262 65.1855 17.6581 65.1503C17.5899 65.1151 17.514 65.0975 17.4304 65.0975C17.3467 65.0975 17.2712 65.1151 17.2036 65.1503C17.1361 65.1855 17.0827 65.2349 17.0435 65.2985C17.0042 65.3621 16.9846 65.4348 16.9846 65.5166C16.9846 65.5984 17.0042 65.6711 17.0435 65.7347C17.0827 65.7983 17.1361 65.8477 17.2036 65.8829C17.2712 65.9181 17.3467 65.9357 17.4304 65.9357Z" fill="#0B1739"/>
<path d="M60.312 65.8141H61.2156V65.9868L60.7076 67.2197H60.5028L61.0148 65.9868H60.312V65.8141ZM61.4409 67.0089H61.6458L61.4871 67.5209H61.3446L61.4409 67.0089ZM62.4163 67.2358C62.3427 67.2358 62.2758 67.2237 62.2155 67.1996C62.1566 67.1755 62.1064 67.1374 62.0649 67.0852C62.0234 67.0316 61.9913 66.9634 61.9686 66.8804C61.9458 66.796 61.9344 66.6943 61.9344 66.5751V66.4587C61.9344 66.3409 61.9458 66.2405 61.9686 66.1575C61.9913 66.0731 62.0234 66.0049 62.0649 65.9527C62.1078 65.8991 62.1587 65.8603 62.2176 65.8362C62.2778 65.8108 62.3441 65.798 62.4163 65.798C62.49 65.798 62.5562 65.8101 62.6151 65.8342C62.6754 65.8583 62.7263 65.8971 62.7678 65.9507C62.8093 66.0029 62.8414 66.0711 62.8641 66.1555C62.8869 66.2385 62.8983 66.3395 62.8983 66.4587V66.5751C62.8983 66.693 62.8869 66.794 62.8641 66.8784C62.8414 66.9614 62.8086 67.0296 62.7657 67.0832C62.7242 67.1354 62.6734 67.1742 62.6131 67.1996C62.5542 67.2237 62.4886 67.2358 62.4163 67.2358ZM62.4163 67.0551C62.4605 67.0551 62.5 67.0477 62.5348 67.033C62.571 67.0169 62.6011 66.9908 62.6252 66.9547C62.6493 66.9172 62.668 66.8677 62.6814 66.8061C62.6948 66.7445 62.7015 66.6675 62.7015 66.5751V66.4587C62.7015 66.3663 62.6948 66.29 62.6814 66.2298C62.668 66.1682 62.6486 66.1187 62.6232 66.0812C62.5991 66.0437 62.569 66.0176 62.5328 66.0029C62.498 65.9868 62.4592 65.9788 62.4163 65.9788C62.3722 65.9788 62.332 65.9868 62.2959 66.0029C62.2611 66.0176 62.2316 66.0437 62.2075 66.0812C62.1834 66.1173 62.1647 66.1662 62.1513 66.2278C62.1379 66.2893 62.1312 66.3663 62.1312 66.4587V66.5751C62.1312 66.6675 62.1379 66.7445 62.1513 66.8061C62.1647 66.8663 62.1834 66.9152 62.2075 66.9527C62.2329 66.9901 62.2631 67.0169 62.2979 67.033C62.334 67.0477 62.3735 67.0551 62.4163 67.0551ZM63.0973 66.0169L63.3904 65.8141H63.5792V67.2197H63.3904V66.0229L63.0973 66.2217V66.0169Z" fill="#29313C"/>
<path d="M41.7391 49.6917V52.5029H41.3415V50.0411H40.7069V49.6917H41.7391ZM43.2807 49.6917V52.5029H42.8831V50.0411H42.2486V49.6917H43.2807ZM45.6697 51.029C45.8304 51.0906 45.9535 51.179 46.0392 51.2941C46.1249 51.4092 46.1677 51.5471 46.1677 51.7077C46.1677 51.8764 46.1222 52.0237 46.0312 52.1495C45.9401 52.2727 45.8103 52.3677 45.6416 52.4347C45.4729 52.5016 45.2748 52.5351 45.0472 52.5351C44.8223 52.5351 44.6255 52.5016 44.4569 52.4347C44.2909 52.3677 44.1624 52.2727 44.0713 52.1495C43.9803 52.0237 43.9348 51.8764 43.9348 51.7077C43.9348 51.5471 43.9763 51.4092 44.0593 51.2941C44.145 51.179 44.2681 51.0906 44.4288 51.029C44.3002 50.9675 44.2025 50.8858 44.1356 50.7841C44.0687 50.6823 44.0352 50.5618 44.0352 50.4226C44.0352 50.2673 44.0767 50.1321 44.1597 50.017C44.2454 49.9019 44.3645 49.8135 44.5171 49.7519C44.6697 49.6903 44.8464 49.6596 45.0472 49.6596C45.2507 49.6596 45.4288 49.6903 45.5814 49.7519C45.7367 49.8135 45.8558 49.9019 45.9388 50.017C46.0245 50.1321 46.0673 50.2673 46.0673 50.4226C46.0673 50.5592 46.0325 50.6796 45.9629 50.7841C45.896 50.8858 45.7982 50.9675 45.6697 51.029ZM45.0472 49.9849C44.8571 49.9849 44.7072 50.0264 44.5974 50.1094C44.4877 50.1897 44.4328 50.2994 44.4328 50.4387C44.4328 50.5779 44.4863 50.6877 44.5934 50.768C44.7032 50.8483 44.8545 50.8885 45.0472 50.8885C45.2427 50.8885 45.3953 50.8483 45.5051 50.768C45.6175 50.6877 45.6737 50.5779 45.6737 50.4387C45.6737 50.2994 45.6162 50.1897 45.501 50.1094C45.3886 50.0264 45.2373 49.9849 45.0472 49.9849ZM45.0472 52.2098C45.2695 52.2098 45.4448 52.1642 45.5733 52.0732C45.7019 51.9795 45.7661 51.8537 45.7661 51.6957C45.7661 51.5404 45.7019 51.4186 45.5733 51.3302C45.4448 51.2392 45.2695 51.1937 45.0472 51.1937C44.825 51.1937 44.651 51.2392 44.5251 51.3302C44.3993 51.4186 44.3364 51.5404 44.3364 51.6957C44.3364 51.8537 44.3993 51.9795 44.5251 52.0732C44.651 52.1642 44.825 52.2098 45.0472 52.2098ZM46.8989 51.9768C46.9739 51.9768 47.0355 52.0036 47.0837 52.0571C47.1345 52.108 47.16 52.1723 47.16 52.2499C47.16 52.2901 47.1546 52.3289 47.1439 52.3664C47.1359 52.4039 47.1185 52.4614 47.0917 52.5391L46.9029 53.0973H46.6499L46.7985 52.4989C46.7476 52.4802 46.7061 52.4494 46.674 52.4065C46.6446 52.361 46.6298 52.3088 46.6298 52.2499C46.6298 52.1696 46.6553 52.104 46.7061 52.0531C46.757 52.0023 46.8213 51.9768 46.8989 51.9768ZM48.4155 49.6917V52.5029H48.0179V50.0411H47.3833V49.6917H48.4155ZM49.9571 49.6917V52.5029H49.5595V50.0411H48.925V49.6917H49.9571Z" fill="#FF0000"/>
<path d="M41.7391 49.6917V52.5029H41.3415V50.0411H40.7069V49.6917H41.7391ZM43.2807 49.6917V52.5029H42.8831V50.0411H42.2486V49.6917H43.2807ZM45.6697 51.029C45.8304 51.0906 45.9535 51.179 46.0392 51.2941C46.1249 51.4092 46.1677 51.5471 46.1677 51.7077C46.1677 51.8764 46.1222 52.0237 46.0312 52.1495C45.9401 52.2727 45.8103 52.3677 45.6416 52.4347C45.4729 52.5016 45.2748 52.5351 45.0472 52.5351C44.8223 52.5351 44.6255 52.5016 44.4569 52.4347C44.2909 52.3677 44.1624 52.2727 44.0713 52.1495C43.9803 52.0237 43.9348 51.8764 43.9348 51.7077C43.9348 51.5471 43.9763 51.4092 44.0593 51.2941C44.145 51.179 44.2681 51.0906 44.4288 51.029C44.3002 50.9675 44.2025 50.8858 44.1356 50.7841C44.0687 50.6823 44.0352 50.5618 44.0352 50.4226C44.0352 50.2673 44.0767 50.1321 44.1597 50.017C44.2454 49.9019 44.3645 49.8135 44.5171 49.7519C44.6697 49.6903 44.8464 49.6596 45.0472 49.6596C45.2507 49.6596 45.4288 49.6903 45.5814 49.7519C45.7367 49.8135 45.8558 49.9019 45.9388 50.017C46.0245 50.1321 46.0673 50.2673 46.0673 50.4226C46.0673 50.5592 46.0325 50.6796 45.9629 50.7841C45.896 50.8858 45.7982 50.9675 45.6697 51.029ZM45.0472 49.9849C44.8571 49.9849 44.7072 50.0264 44.5974 50.1094C44.4877 50.1897 44.4328 50.2994 44.4328 50.4387C44.4328 50.5779 44.4863 50.6877 44.5934 50.768C44.7032 50.8483 44.8545 50.8885 45.0472 50.8885C45.2427 50.8885 45.3953 50.8483 45.5051 50.768C45.6175 50.6877 45.6737 50.5779 45.6737 50.4387C45.6737 50.2994 45.6162 50.1897 45.501 50.1094C45.3886 50.0264 45.2373 49.9849 45.0472 49.9849ZM45.0472 52.2098C45.2695 52.2098 45.4448 52.1642 45.5733 52.0732C45.7019 51.9795 45.7661 51.8537 45.7661 51.6957C45.7661 51.5404 45.7019 51.4186 45.5733 51.3302C45.4448 51.2392 45.2695 51.1937 45.0472 51.1937C44.825 51.1937 44.651 51.2392 44.5251 51.3302C44.3993 51.4186 44.3364 51.5404 44.3364 51.6957C44.3364 51.8537 44.3993 51.9795 44.5251 52.0732C44.651 52.1642 44.825 52.2098 45.0472 52.2098ZM46.8989 51.9768C46.9739 51.9768 47.0355 52.0036 47.0837 52.0571C47.1345 52.108 47.16 52.1723 47.16 52.2499C47.16 52.2901 47.1546 52.3289 47.1439 52.3664C47.1359 52.4039 47.1185 52.4614 47.0917 52.5391L46.9029 53.0973H46.6499L46.7985 52.4989C46.7476 52.4802 46.7061 52.4494 46.674 52.4065C46.6446 52.361 46.6298 52.3088 46.6298 52.2499C46.6298 52.1696 46.6553 52.104 46.7061 52.0531C46.757 52.0023 46.8213 51.9768 46.8989 51.9768ZM48.4155 49.6917V52.5029H48.0179V50.0411H47.3833V49.6917H48.4155ZM49.9571 49.6917V52.5029H49.5595V50.0411H48.925V49.6917H49.9571Z" fill="#0B1739"/>
<path d="M42.4307 48.0442C42.0358 48.0442 41.7296 47.9388 41.512 47.7279C41.2945 47.5137 41.1824 47.2109 41.1757 46.8193H41.8082C41.8149 47.0502 41.8701 47.2192 41.9739 47.3263C42.0776 47.4301 42.2299 47.482 42.4307 47.482C42.6382 47.482 42.7938 47.4351 42.8976 47.3414C43.0013 47.2443 43.0532 47.1155 43.0532 46.9548C43.0532 46.8109 43.003 46.6921 42.9026 46.5984C42.8056 46.5047 42.66 46.4579 42.4659 46.4579H42.004V45.9257H42.4659C42.6265 45.9257 42.752 45.8839 42.8424 45.8002C42.9327 45.7166 42.9779 45.6078 42.9779 45.4739C42.9779 45.3334 42.9311 45.2196 42.8373 45.1326C42.747 45.0455 42.6114 45.002 42.4307 45.002C42.0961 45.002 41.9137 45.1895 41.8835 45.5643H41.251C41.2577 45.2129 41.3631 44.9384 41.5673 44.741C41.7748 44.5402 42.0626 44.4398 42.4307 44.4398C42.6248 44.4398 42.7955 44.4649 42.9428 44.5151C43.09 44.5619 43.2122 44.6289 43.3092 44.7159C43.4096 44.8029 43.4849 44.9083 43.5351 45.0322C43.5853 45.1526 43.6104 45.2865 43.6104 45.4338C43.6104 45.5944 43.5753 45.74 43.505 45.8705C43.4347 46.001 43.326 46.1065 43.1787 46.1868C43.3494 46.2704 43.4766 46.3842 43.5602 46.5281C43.6439 46.6687 43.6857 46.826 43.6857 47C43.6857 47.154 43.659 47.2962 43.6054 47.4267C43.5519 47.5539 43.4716 47.6644 43.3645 47.7581C43.2607 47.8484 43.1302 47.9187 42.9729 47.9689C42.8189 48.0191 42.6382 48.0442 42.4307 48.0442ZM45.0717 46.9498H44.8207V47.999H44.2383V45.489H44.8207V46.4378H45.0717L45.6741 45.489H46.3468L45.5536 46.6737L46.4472 47.999H45.7444L45.0717 46.9498Z" fill="#FF0000"/>
<path d="M42.4307 48.0442C42.0358 48.0442 41.7296 47.9388 41.512 47.7279C41.2945 47.5137 41.1824 47.2109 41.1757 46.8193H41.8082C41.8149 47.0502 41.8701 47.2192 41.9739 47.3263C42.0776 47.4301 42.2299 47.482 42.4307 47.482C42.6382 47.482 42.7938 47.4351 42.8976 47.3414C43.0013 47.2443 43.0532 47.1155 43.0532 46.9548C43.0532 46.8109 43.003 46.6921 42.9026 46.5984C42.8056 46.5047 42.66 46.4579 42.4659 46.4579H42.004V45.9257H42.4659C42.6265 45.9257 42.752 45.8839 42.8424 45.8002C42.9327 45.7166 42.9779 45.6078 42.9779 45.4739C42.9779 45.3334 42.9311 45.2196 42.8373 45.1326C42.747 45.0455 42.6114 45.002 42.4307 45.002C42.0961 45.002 41.9137 45.1895 41.8835 45.5643H41.251C41.2577 45.2129 41.3631 44.9384 41.5673 44.741C41.7748 44.5402 42.0626 44.4398 42.4307 44.4398C42.6248 44.4398 42.7955 44.4649 42.9428 44.5151C43.09 44.5619 43.2122 44.6289 43.3092 44.7159C43.4096 44.8029 43.4849 44.9083 43.5351 45.0322C43.5853 45.1526 43.6104 45.2865 43.6104 45.4338C43.6104 45.5944 43.5753 45.74 43.505 45.8705C43.4347 46.001 43.326 46.1065 43.1787 46.1868C43.3494 46.2704 43.4766 46.3842 43.5602 46.5281C43.6439 46.6687 43.6857 46.826 43.6857 47C43.6857 47.154 43.659 47.2962 43.6054 47.4267C43.5519 47.5539 43.4716 47.6644 43.3645 47.7581C43.2607 47.8484 43.1302 47.9187 42.9729 47.9689C42.8189 48.0191 42.6382 48.0442 42.4307 48.0442ZM45.0717 46.9498H44.8207V47.999H44.2383V45.489H44.8207V46.4378H45.0717L45.6741 45.489H46.3468L45.5536 46.6737L46.4472 47.999H45.7444L45.0717 46.9498Z" fill="#0B1739"/>
<path d="M70.4814 35.3213H58.6865V33.0664H70.4814V35.3213ZM58.8193 35.1885H70.3496V33.1992H58.8193V35.1885Z" fill="#29313C"/>
<path d="M59.8799 34.2596V34.127H69.422V34.2596H59.8799Z" fill="#29313C"/>
<path d="M60.2773 33.5967H60.4099V34.9229H60.2773V33.5967Z" fill="#29313C"/>
<path d="M60.8066 33.5967H60.9392V34.9229H60.8066V33.5967Z" fill="#29313C"/>
<path d="M61.4697 33.5967H61.6023V34.9229H61.4697V33.5967Z" fill="#29313C"/>
<path d="M63.0605 33.5967H63.1931V34.9229H63.0605V33.5967Z" fill="#29313C"/>
<path d="M63.9883 33.5967H64.1208V34.9229H63.9883V33.5967Z" fill="#29313C"/>
<path d="M66.9033 33.5967H67.0358V34.9229H66.9033V33.5967Z" fill="#29313C"/>
<path d="M64.5176 33.5967H64.6501V34.9229H64.5176V33.5967Z" fill="#29313C"/>
<path d="M67.4336 33.5967H67.5661V34.9229H67.4336V33.5967Z" fill="#29313C"/>
<path d="M65.1807 33.5967H65.3132V34.9229H65.1807V33.5967Z" fill="#29313C"/>
<path d="M68.0967 33.5967H68.2292V34.9229H68.0967V33.5967Z" fill="#29313C"/>
<path d="M68.7588 33.5967H68.8913V34.9229H68.7588V33.5967Z" fill="#29313C"/>
<path d="M62.1836 33.6824L62.3117 33.6484L62.6616 34.9703L62.5335 35.0043L62.1836 33.6824Z" fill="#29313C"/>
<path d="M66.373 33.6824L66.2449 33.6484L65.895 34.9703L66.0231 35.0043L66.373 33.6824Z" fill="#29313C"/>
<path d="M30.5273 36.2275V48.0312H28.2744V36.2275H30.5273ZM30.3945 47.8984V36.3604H28.4072V47.8984H30.3945Z" fill="#29313C"/>
<path d="M29.4675 46.8379H29.335V37.2887H29.4675L29.4675 46.8379Z" fill="#29313C"/>
<path d="M28.8047 46.4395V46.3068H30.13V46.4395H28.8047Z" fill="#29313C"/>
<path d="M28.8047 45.9092V45.7766H30.13V45.9092H28.8047Z" fill="#29313C"/>
<path d="M28.8047 45.2461V45.1135H30.13V45.2461H28.8047Z" fill="#29313C"/>
<path d="M28.8047 43.6543V43.5217H30.13V43.6543H28.8047Z" fill="#29313C"/>
<path d="M28.8047 42.7256V42.593H30.13V42.7256H28.8047Z" fill="#29313C"/>
<path d="M28.8047 39.8086V39.676H30.13V39.8086H28.8047Z" fill="#29313C"/>
<path d="M28.8047 42.1953V42.0627H30.13V42.1953H28.8047Z" fill="#29313C"/>
<path d="M28.8047 39.2773V39.1447H30.13V39.2773H28.8047Z" fill="#29313C"/>
<path d="M28.8047 41.5322V41.3996H30.13V41.5322H28.8047Z" fill="#29313C"/>
<path d="M28.8047 38.6143V38.4816H30.13V38.6143H28.8047Z" fill="#29313C"/>
<path d="M28.8047 37.9512V37.8185H30.13V37.9512H28.8047Z" fill="#29313C"/>
<path d="M28.8904 44.5312L28.8564 44.403L30.1773 44.0529L30.2113 44.1811L28.8904 44.5312Z" fill="#29313C"/>
<path d="M30.177 40.8174L30.2109 40.6892L28.8901 40.339L28.8561 40.4672L30.177 40.8174Z" fill="#29313C"/>
<path d="M32.5781 19.6709V26.833H30.3252V19.6709H32.5781ZM32.4453 26.7002V19.8037H30.458V26.7002H32.4453Z" fill="#29313C"/>
<path d="M31.5183 26.3018H31.3857V20.4662H31.5183L31.5183 26.3018Z" fill="#29313C"/>
<path d="M30.8555 25.9043V25.7717H32.1808V25.9043H30.8555Z" fill="#29313C"/>
<path d="M30.8555 25.374V25.2414H32.1808V25.374H30.8555Z" fill="#29313C"/>
<path d="M30.8555 24.7109V24.5783H32.1808V24.7109H30.8555Z" fill="#29313C"/>
<path d="M30.8555 23.1191V22.9865H32.1808V23.1191H30.8555Z" fill="#29313C"/>
<path d="M30.8555 22.1904V22.0578H32.1808V22.1904H30.8555Z" fill="#29313C"/>
<path d="M30.8555 21.6602V21.5275H32.1808V21.6602H30.8555Z" fill="#29313C"/>
<path d="M30.8555 20.9971V20.8644H32.1808V20.9971H30.8555Z" fill="#29313C"/>
<path d="M30.9412 23.9961L30.9072 23.8679L32.2281 23.5177L32.2621 23.6459L30.9412 23.9961Z" fill="#29313C"/>
<path d="M9.51855 24.5781H16.6748V26.833H9.51855V24.5781ZM16.542 24.7109H9.65039V26.7002H16.542V24.7109Z" fill="#29313C"/>
<path d="M16.1445 25.6389V25.7715H10.3132V25.6389L16.1445 25.6389Z" fill="#29313C"/>
<path d="M15.7471 26.3018H15.6145V24.9755H15.7471V26.3018Z" fill="#29313C"/>
<path d="M15.2168 26.3018H15.0843V24.9755H15.2168V26.3018Z" fill="#29313C"/>
<path d="M14.5537 26.3018H14.4212V24.9755H14.5537V26.3018Z" fill="#29313C"/>
<path d="M12.9639 26.3018H12.8313V24.9755H12.9639V26.3018Z" fill="#29313C"/>
<path d="M12.0361 26.3018H11.9036V24.9755H12.0361V26.3018Z" fill="#29313C"/>
<path d="M11.5059 26.3018H11.3733V24.9755H11.5059V26.3018Z" fill="#29313C"/>
<path d="M10.8438 26.3018H10.7112V24.9755H10.8438V26.3018Z" fill="#29313C"/>
<path d="M13.8398 26.217L13.7117 26.251L13.3618 24.9291L13.4899 24.8952L13.8398 26.217Z" fill="#29313C"/>
<path d="M62.9277 10.5195H70.6143V12.7744L62.9277 12.7744V10.5195ZM70.4814 10.6523H63.0596V12.6416L70.4814 12.6416V10.6523Z" fill="#29313C"/>
<path d="M69.5537 11.5803V11.7129H63.7224V11.5803H69.5537Z" fill="#29313C"/>
<path d="M69.1562 12.2441H69.0237V10.9179H69.1562V12.2441Z" fill="#29313C"/>
<path d="M68.626 12.2441H68.4934V10.9179H68.626V12.2441Z" fill="#29313C"/>
<path d="M67.9639 12.2441H67.8313V10.9179H67.9639V12.2441Z" fill="#29313C"/>
<path d="M66.373 12.2441H66.2405V10.9179H66.373V12.2441Z" fill="#29313C"/>
<path d="M65.4453 12.2441H65.3128V10.9179H65.4453V12.2441Z" fill="#29313C"/>
<path d="M64.916 12.2441H64.7835V10.9179H64.916V12.2441Z" fill="#29313C"/>
<path d="M64.2529 12.2441H64.1204V10.9179H64.2529V12.2441Z" fill="#29313C"/>
<path d="M67.25 12.1584L67.1219 12.1924L66.772 10.8705L66.9001 10.8366L67.25 12.1584Z" fill="#29313C"/>
<path d="M68.4971 19.0889V12.6416H70.75V19.0889H68.4971ZM68.6299 12.7744V18.9561H70.6172V12.7744H68.6299Z" fill="#29313C"/>
<path d="M69.5569 13.5205H69.6895V18.4329H69.5569V13.5205Z" fill="#29313C"/>
<path d="M70.2197 13.8535V13.9861H68.8944V13.8535H70.2197Z" fill="#29313C"/>
<path d="M70.2197 14.2979V14.4305H68.8944V14.2979H70.2197Z" fill="#29313C"/>
<path d="M70.2197 14.8535V14.9861H68.8944V14.8535H70.2197Z" fill="#29313C"/>
<path d="M70.2197 16.1875V16.3201H68.8944V16.1875H70.2197Z" fill="#29313C"/>
<path d="M70.2197 16.9658V17.0984H68.8944V16.9658H70.2197Z" fill="#29313C"/>
<path d="M70.2197 17.4102V17.5428H68.8944V17.4102H70.2197Z" fill="#29313C"/>
<path d="M70.2197 17.9668V18.0994H68.8944V17.9668H70.2197Z" fill="#29313C"/>
<path d="M70.1383 15.4521L70.167 15.5816L68.8448 15.8754L68.8161 15.7459L70.1383 15.4521Z" fill="#29313C"/>
<path d="M62.7949 22.0576H59.2168V20.2012H62.7949V22.0576ZM59.3496 21.9258H62.6621V20.334H59.3496V21.9258Z" fill="#29313C"/>
<path d="M51.6631 38.6367H41.8555V36.9121H51.6631V38.6367ZM41.9883 38.5039H51.5303V37.0449H41.9883V38.5039Z" fill="#29313C"/>
<path d="M50.7344 38.1055H42.6504V37.4424H50.7344V38.1055ZM42.7832 37.9727H50.6025V37.5752H42.7832V37.9727Z" fill="#29313C"/>
<path d="M39.4152 40.2341L36.146 41.6908L34.9062 38.9043L38.1755 37.4477L39.4152 40.2341ZM36.2133 41.5154L39.2408 40.1664L38.1091 37.6227L35.0816 38.9716L36.2133 41.5154Z" fill="#29313C"/>
<path d="M39.4152 40.2341L36.146 41.6908L34.9062 38.9043L38.1755 37.4477L39.4152 40.2341ZM36.2133 41.5154L39.2408 40.1664L38.1091 37.6227L35.0816 38.9716L36.2133 41.5154Z" fill="#29313C"/>
<path d="M40.0211 39.9639L35.5405 41.9603L34.3008 39.1738L38.7814 37.1775L40.0211 39.9639ZM35.6078 41.7849L39.8458 39.8966L38.7141 37.3529L34.4761 39.2411L35.6078 41.7849Z" fill="#29313C"/>
<path d="M38.6066 38.4166L35.3373 39.8733L34.9063 38.9043L38.1755 37.4477L38.6066 38.4166ZM35.4047 39.6979L38.4313 38.3493L38.1082 37.6231L35.0816 38.9716L35.4047 39.6979Z" fill="#29313C"/>
<path d="M42.5186 55.082H46.0967V58.1328H42.5186V55.082ZM45.9639 55.2148H42.6514V58H45.9639V55.2148Z" fill="#29313C"/>
<path d="M42.5186 55.082H46.0967V58.1328H42.5186V55.082ZM45.9639 55.2148H42.6514V58H45.9639V55.2148Z" fill="#29313C"/>
<path d="M41.8555 55.082H46.7588V58.1328H41.8555V55.082ZM46.626 55.2148H41.9873V58H46.626V55.2148Z" fill="#29313C"/>
<path d="M42.5186 57.0723H46.0967V58.1328H42.5186V57.0723ZM45.9639 57.2041H42.6514V58H45.9639V57.2041Z" fill="#29313C"/>
<path d="M36.2891 51.501V55.082H33.2412V51.501H36.2891ZM36.1572 54.9492V51.6338H33.374V54.9492H36.1572Z" fill="#29313C"/>
<path d="M36.2891 48.0527V51.6338H33.2412V48.0527H36.2891ZM36.1572 51.501V48.1855H33.374V51.501H36.1572Z" fill="#29313C"/>
<path d="M36.2891 44.6045V48.1855H33.2412V44.6045H36.2891ZM36.1572 48.0527V44.7373H33.374V48.0527H36.1572Z" fill="#29313C"/>
<path d="M36.2891 44.6045V55.082H33.2412V44.6045H36.2891ZM36.1572 54.9492V44.7373H33.374V54.9492H36.1572Z" fill="#29313C"/>
<path d="M36.2891 43.9414V55.7451H33.2412V43.9414H36.2891ZM36.1572 55.6123V44.0742H33.374V55.6123H36.1572Z" fill="#29313C"/>
<path d="M34.3018 51.501V55.082H33.2412V51.501H34.3018ZM34.1689 54.9492V51.6338H33.374V54.9492H34.1689Z" fill="#29313C"/>
<path d="M34.3018 48.0527V51.6338H33.2412V48.0527H34.3018ZM34.1689 51.501V48.1855H33.374V51.501H34.1689Z" fill="#29313C"/>
<path d="M34.3018 44.6045V48.1855H33.2412V44.6045H34.3018ZM34.1689 48.0527V44.7373H33.374V48.0527H34.1689Z" fill="#29313C"/>
<path d="M58.7529 49.0479C60.4364 49.0479 61.8018 50.4139 61.8018 52.0986C61.8016 53.7832 60.4363 55.1484 58.7529 55.1484C57.0697 55.1483 55.7053 53.7831 55.7051 52.0986C55.7051 50.414 57.0696 49.048 58.7529 49.0479ZM58.7529 49.1807C57.1428 49.1808 55.8379 50.4873 55.8379 52.0986C55.8381 53.7098 57.1429 55.0154 58.7529 55.0156C60.3631 55.0156 61.6688 53.7099 61.6689 52.0986C61.6689 50.4872 60.3632 49.1807 58.7529 49.1807Z" fill="#29313C"/>
<path d="M61.8016 49.723L60.2763 48.249L61.5654 46.9131L63.0907 48.3871L61.8016 49.723ZM60.4641 48.2457L61.7983 49.5351L62.9029 48.3904L61.5687 47.101L60.4641 48.2457Z" fill="#29313C"/>
<path d="M62.0676 53.8882L61.9721 53.9805L62.1598 53.9838L62.0643 54.0761L61.9721 53.9805L60.5424 55.3622L61.7393 56.6025L63.2645 55.1285L62.0676 53.8882ZM61.7425 56.4147L60.7301 55.3655L62.0643 54.0761L63.0768 55.1253L61.7425 56.4147Z" fill="#29313C"/>
<path d="M62.2656 52.96V50.8379H63.9883V52.96H62.2656ZM62.3975 50.9707V52.8271H63.8555V50.9707H62.3975Z" fill="#29313C"/>
<path d="M54.802 52.6954L55.7313 54.6021L54.0498 55.4229L53.1205 53.5162L54.802 52.6954ZM55.5538 54.541L54.7404 52.8722L53.2976 53.5764L54.111 55.2452L55.5538 54.541Z" fill="#29313C"/>
<path d="M35.376 15.8242V17.9463H33.5059V15.8242H35.376ZM35.2432 17.8135V15.957H33.6387V17.8135H35.2432Z" fill="#29313C"/>
<path d="M35.376 12.1113V14.2334H33.5059V12.1113H35.376ZM35.2432 14.1006V12.2441H33.6387V14.1006H35.2432Z" fill="#29313C"/>
<path d="M57.2167 55.6048L59.3169 55.9012L59.0957 57.4766L56.9953 57.1812L57.2167 55.6048ZM59.1671 56.0133L57.3297 55.7548L57.1453 57.0681L58.9827 57.3265L59.1671 56.0133Z" fill="#29313C"/>
<path d="M12.6982 59.3262H9.51758V57.0713H12.6982V59.3262ZM9.65039 59.1934H12.5654V57.2041H9.65039V59.1934Z" fill="#29313C"/>
<path d="M50.7344 15.6924V21.6602H48.4814V15.6924H50.7344ZM50.6016 21.5273V15.8242H48.6143V21.5273H50.6016Z" fill="#29313C"/>
<path d="M12.6982 12.7744H9.51758V10.5195H12.6982V12.7744ZM9.65039 12.6416H12.5654V10.6523H9.65039V12.6416Z" fill="#29313C"/>
<path d="M30.5898 59.3262H23.6982V57.0713H30.5898V59.3262ZM23.8311 59.1934H30.457V57.2041H23.8311V59.1934Z" fill="#29313C"/>
<path d="M29.6621 12.7744H23.6982V10.5195H29.6621V12.7744ZM23.8311 12.6416H29.5293V10.6523H23.8311V12.6416Z" fill="#29313C"/>
<path d="M22.2412 59.3262H14.2891V48.9814H22.2412V59.3262ZM14.4219 59.1934H22.1084V49.1143H14.4219V59.1934Z" fill="#29313C"/>
<path d="M17.8672 58.9287H14.8193V56.9395H17.8672V58.9287ZM14.9521 58.7959H17.7354V57.0723H14.9521V58.7959Z" fill="#29313C"/>
<path d="M21.5781 58.9287H18.5303V56.9395H21.5781V58.9287ZM18.6631 58.7959H21.4463V57.0723H18.6631V58.7959Z" fill="#29313C"/>
<path d="M22.2412 56.2764H14.2891V48.9814H22.2412V56.2764ZM14.4219 56.1436H22.1084V49.1143H14.4219V56.1436Z" fill="#29313C"/>
<path d="M22.2412 54.9492H14.2891V48.9814H22.2412V54.9492ZM14.4219 54.8174H22.1084V49.1143H14.4219V54.8174Z" fill="#29313C"/>
<path d="M22.2412 10.5195H14.2891V20.8643H22.2412V10.5195ZM14.4219 10.6523H22.1084V20.7314H14.4219V10.6523Z" fill="#29313C"/>
<path d="M17.8672 10.918H14.8193V12.9072H17.8672V10.918ZM14.9521 11.0508H17.7354V12.7744H14.9521V11.0508Z" fill="#29313C"/>
<path d="M21.5781 10.918H18.5303V12.9072H21.5781V10.918ZM18.6631 11.0508H21.4463V12.7744H18.6631V11.0508Z" fill="#29313C"/>
<path d="M22.2412 13.5693H14.2891V20.8643H22.2412V13.5693ZM14.4219 13.7021H22.1084V20.7314H14.4219V13.7021Z" fill="#29313C"/>
<path d="M22.2412 14.8965H14.2891V20.8643H22.2412V14.8965ZM14.4219 15.0283H22.1084V20.7314H14.4219V15.0283Z" fill="#29313C"/>
<path d="M50.7344 26.833V22.5889H40.3975V26.833H50.7344ZM50.6025 22.7217V26.7002H40.5303V22.7217H50.6025Z" fill="#29313C"/>
<path d="M50.3379 26.1699V23.1191H48.3496V26.1699H50.3379ZM50.2051 23.252V26.0371H48.4824V23.252H50.2051Z" fill="#29313C"/>
<path d="M47.6865 26.833V22.5889H40.3975V26.833H47.6865ZM47.5537 22.7217V26.7002H40.5303V22.7217H47.5537Z" fill="#29313C"/>
<path d="M46.3613 26.833V22.5889H40.3975V26.833H46.3613ZM46.2285 22.7217V26.7002H40.5303V22.7217H46.2285Z" fill="#29313C"/>
<path d="M50.7344 14.7637V10.5195H40.3975V14.7637H50.7344ZM50.6025 10.6523V14.6309H40.5303V10.6523H50.6025Z" fill="#29313C"/>
<path d="M50.3379 14.1006V11.0498H48.3496V14.1006H50.3379ZM50.2051 11.1826V13.9678H48.4824V11.1826H50.2051Z" fill="#29313C"/>
<path d="M47.6865 14.7637V10.5195H40.3975V14.7637H47.6865ZM47.5537 10.6523V14.6309H40.5303V10.6523H47.5537Z" fill="#29313C"/>
<path d="M46.3613 14.7637V10.5195H40.3975V14.7637H46.3613ZM46.2285 10.6523V14.6309H40.5303V10.6523H46.2285Z" fill="#29313C"/>
<path d="M33.6387 19.1406H30.3252V10.5195H33.6387V19.1406ZM30.458 19.0078H33.5059V10.6523H30.458V19.0078Z" fill="#29313C"/>
<path d="M14.8828 44.3457H12.7627V42.4746H14.8828V44.3457ZM12.8955 44.2129H14.751V42.6074H12.8955V44.2129Z" fill="#29313C"/>
<path d="M9.45703 42.6143V39.2988H18.0713V42.6143H9.45703ZM9.58984 39.4316V42.4814H17.9385V39.4316H9.58984Z" fill="#29313C"/>
<path d="M71.0117 39.5645H58.6865V36.3818H71.0117V39.5645ZM58.8193 39.4326H70.8789V36.5146H58.8193V39.4326Z" fill="#29313C"/>
</svg>
